<svg width="163" height="48" viewBox="0 0 163 48" fill="none" xmlns="http://www.w3.org/2000/svg">
<rect width="163" height="48" rx="24" fill="#003459"/>
<path d="M38.188 25.04H42.908V23.648H38.188V20.208H43.308V18.8H36.7V30H43.388V28.592H38.188V25.04ZM48.9284 25.872L51.8084 22H50.1764L48.1124 24.784L46.0484 22H44.4004L47.2964 25.888L44.2244 30H45.8564L48.1124 26.976L50.3524 30H51.9844L48.9284 25.872ZM57.6908 21.792C56.3628 21.792 55.3548 22.32 54.6668 23.376V22H53.2747V33.2H54.6668V28.624C55.3548 29.68 56.3628 30.208 57.6908 30.208C58.8108 30.208 59.7708 29.808 60.5548 28.992C61.3388 28.176 61.7388 27.168 61.7388 26C61.7388 24.832 61.3388 23.84 60.5548 23.024C59.7708 22.208 58.8108 21.792 57.6908 21.792ZM57.5148 28.864C56.6988 28.864 56.0268 28.592 55.4828 28.048C54.9388 27.488 54.6668 26.816 54.6668 26C54.6668 25.184 54.9388 24.512 55.4828 23.968C56.0268 23.408 56.6988 23.136 57.5148 23.136C58.3148 23.136 58.9868 23.408 59.5308 23.968C60.0748 24.512 60.3468 25.184 60.3468 26C60.3468 26.816 60.0748 27.488 59.5308 28.048C58.9868 28.592 58.3148 28.864 57.5148 28.864ZM64.7918 30V18.32H63.3997V30H64.7918ZM73.6674 28.992C74.4834 28.176 74.8994 27.184 74.8994 26C74.8994 24.816 74.4834 23.824 73.6674 23.008C72.8514 22.192 71.8434 21.792 70.6754 21.792C69.5074 21.792 68.4994 22.192 67.6834 23.008C66.8674 23.824 66.4674 24.816 66.4674 26C66.4674 27.184 66.8674 28.176 67.6834 28.992C68.4994 29.808 69.5074 30.208 70.6754 30.208C71.8434 30.208 72.8514 29.808 73.6674 28.992ZM70.6754 28.848C69.8914 28.848 69.2194 28.576 68.6754 28.032C68.1314 27.488 67.8594 26.816 67.8594 26C67.8594 25.184 68.1314 24.512 68.6754 23.968C69.2194 23.424 69.8914 23.152 70.6754 23.152C71.4754 23.152 72.1474 23.424 72.6914 23.968C73.2354 24.512 73.5074 25.184 73.5074 26C73.5074 26.816 73.2354 27.488 72.6914 28.032C72.1474 28.576 71.4754 28.848 70.6754 28.848ZM77.9324 22H76.5404V30H77.9324V25.76C77.9324 24.88 78.1724 24.256 78.6684 23.856C79.1644 23.456 79.7404 23.28 80.4284 23.312V21.856C79.2284 21.856 78.3964 22.352 77.9324 23.344V22ZM89.4704 26.64C89.5024 26.432 89.5184 26.224 89.5184 26.016C89.5184 24.848 89.1504 23.856 88.3984 23.04C87.6624 22.208 86.7024 21.792 85.5344 21.792C84.3024 21.792 83.2944 22.192 82.5104 22.992C81.7264 23.792 81.3424 24.8 81.3424 26C81.3424 27.216 81.7424 28.224 82.5264 29.024C83.3264 29.808 84.3664 30.208 85.6304 30.208C87.1984 30.208 88.3664 29.6 89.1504 28.4L87.9664 27.728C87.4864 28.512 86.7184 28.896 85.6624 28.896C84.1424 28.896 83.0384 28.064 82.7664 26.64H89.4704ZM85.5344 23.104C86.8144 23.104 87.8704 23.904 88.1104 25.424H82.7664C83.0064 24.016 84.0464 23.104 85.5344 23.104ZM102.223 27.152L96.4625 18.8H95.2625V30H96.7505V21.632L102.51 30H103.711V18.8H102.223V27.152ZM112.714 28.992C113.53 28.176 113.946 27.184 113.946 26C113.946 24.816 113.53 23.824 112.714 23.008C111.898 22.192 110.89 21.792 109.722 21.792C108.554 21.792 107.546 22.192 106.73 23.008C105.914 23.824 105.514 24.816 105.514 26C105.514 27.184 105.914 28.176 106.73 28.992C107.546 29.808 108.554 30.208 109.722 30.208C110.89 30.208 111.898 29.808 112.714 28.992ZM109.722 28.848C108.938 28.848 108.266 28.576 107.722 28.032C107.178 27.488 106.906 26.816 106.906 26C106.906 25.184 107.178 24.512 107.722 23.968C108.266 23.424 108.938 23.152 109.722 23.152C110.522 23.152 111.194 23.424 111.738 23.968C112.282 24.512 112.554 25.184 112.554 26C112.554 26.816 112.282 27.488 111.738 28.032C111.194 28.576 110.522 28.848 109.722 28.848ZM122.939 28.096L121.051 22H119.707L117.819 28.08L116.059 22H114.603L117.083 30H118.507L120.379 24.08L122.251 30H123.675L126.155 22H124.699L122.939 28.096Z" fill="#FDFDFD"/>
</svg>
