<svg width="161" height="48" viewBox="0 0 161 48" fill="none" xmlns="http://www.w3.org/2000/svg">
<rect x="0.75" y="0.75" width="159.5" height="46.5" rx="23.25" stroke="#003459" stroke-width="1.5"/>
<path d="M33.808 30L37.824 18.8H36.208L32.976 28.144L29.728 18.8H28.128L32.128 30H33.808ZM39.6975 21.008C40.2095 21.008 40.6255 20.592 40.6255 20.08C40.6255 19.568 40.2095 19.136 39.6975 19.136C39.1695 19.136 38.7535 19.568 38.7535 20.08C38.7535 20.592 39.1695 21.008 39.6975 21.008ZM40.3855 30V22H38.9935V30H40.3855ZM50.1891 26.64C50.2211 26.432 50.2371 26.224 50.2371 26.016C50.2371 24.848 49.8691 23.856 49.1171 23.04C48.3811 22.208 47.4211 21.792 46.2531 21.792C45.0211 21.792 44.0131 22.192 43.2291 22.992C42.4451 23.792 42.0611 24.8 42.0611 26C42.0611 27.216 42.4611 28.224 43.2451 29.024C44.0451 29.808 45.0851 30.208 46.3491 30.208C47.9171 30.208 49.0851 29.6 49.8691 28.4L48.6851 27.728C48.2051 28.512 47.4371 28.896 46.3811 28.896C44.8611 28.896 43.7571 28.064 43.4851 26.64H50.1891ZM46.2531 23.104C47.5331 23.104 48.5891 23.904 48.8291 25.424H43.4851C43.7251 24.016 44.7651 23.104 46.2531 23.104ZM59.1888 28.096L57.3008 22H55.9568L54.0688 28.08L52.3088 22H50.8528L53.3328 30H54.7568L56.6288 24.08L58.5008 30H59.9248L62.4048 22H60.9488L59.1888 28.096ZM67.9813 30H69.4693V18.8H67.9813V30ZM75.7119 21.792C74.5439 21.792 73.6799 22.24 73.1199 23.152V22H71.7279V30H73.1199V25.76C73.1199 23.968 74.0479 23.12 75.4399 23.12C76.6719 23.12 77.4239 23.872 77.4239 25.168V30H78.8159V25.088C78.8159 23.056 77.5839 21.792 75.7119 21.792ZM85.1111 22H82.9831V19.76L81.5911 20.176V22H80.0071V23.344H81.5911V27.68C81.5911 29.664 82.6791 30.32 85.1111 30V28.752C83.6871 28.816 82.9831 28.912 82.9831 27.68V23.344H85.1111V22ZM88.198 22H86.806V30H88.198V25.76C88.198 24.88 88.438 24.256 88.934 23.856C89.43 23.456 90.006 23.28 90.694 23.312V21.856C89.494 21.856 88.662 22.352 88.198 23.344V22ZM98.808 28.992C99.624 28.176 100.04 27.184 100.04 26C100.04 24.816 99.624 23.824 98.808 23.008C97.992 22.192 96.984 21.792 95.816 21.792C94.648 21.792 93.64 22.192 92.824 23.008C92.008 23.824 91.608 24.816 91.608 26C91.608 27.184 92.008 28.176 92.824 28.992C93.64 29.808 94.648 30.208 95.816 30.208C96.984 30.208 97.992 29.808 98.808 28.992ZM95.816 28.848C95.032 28.848 94.36 28.576 93.816 28.032C93.272 27.488 93 26.816 93 26C93 25.184 93.272 24.512 93.816 23.968C94.36 23.424 95.032 23.152 95.816 23.152C96.616 23.152 97.288 23.424 97.832 23.968C98.376 24.512 98.648 25.184 98.648 26C98.648 26.816 98.376 27.488 97.832 28.032C97.288 28.576 96.616 28.848 95.816 28.848Z" fill="#003459"/>
<path d="M119 23V29L124 26L119 23Z" fill="#003459" stroke="#003459" stroke-width="1.5" stroke-linecap="round" stroke-linejoin="round"/>
</svg>
