<svg width="248" height="34" viewBox="0 0 248 34" fill="none" xmlns="http://www.w3.org/2000/svg">
<rect width="248" height="34" rx="8" fill="#FCEED5"/>
<path d="M13.7682 18.1406L15.6666 17.4492C15.7252 17.4258 15.7955 17.4141 15.8658 17.4141H28.0299C28.358 17.4141 28.6158 17.6718 28.6158 18V26.2422C28.6158 27.2148 27.8307 28 26.858 28H15.1393C14.1666 28 13.3814 27.2148 13.3814 26.2422V18.6914C13.3814 18.4453 13.5338 18.2227 13.7682 18.1406Z" fill="#FC1A40"/>
<path d="M13.3814 18.6914V26.2422C13.3814 27.2148 14.1666 28 15.1393 28H20.9986V17.4141H15.8658C15.7955 17.4141 15.7252 17.4258 15.6666 17.4492L13.7682 18.1406C13.5338 18.2227 13.3814 18.4453 13.3814 18.6914Z" fill="#C60034"/>
<path d="M13.5924 11.8198C13.7916 11.0112 14.3893 10.3785 15.1978 10.1206C15.9947 9.87449 16.8502 10.0503 17.4713 10.6128L18.8307 11.8081L19.1002 10.0152C19.2291 9.19488 19.7564 8.50343 20.5416 8.17534C20.6939 8.11671 20.8462 8.06984 20.9986 8.0464C21.6431 7.91749 22.3111 8.05812 22.8502 8.45659C23.565 8.97222 23.9283 9.83941 23.8111 10.7066C23.6822 11.5737 23.0962 12.312 22.2643 12.605L20.9986 13.062L19.44 13.6362C19.4283 13.6362 19.4283 13.6362 19.4283 13.6362L16.7212 14.6323C16.4518 14.7261 16.1705 14.773 15.901 14.773C15.3267 14.773 14.7642 14.562 14.3189 14.1636C13.6627 13.5776 13.3814 12.6753 13.5924 11.8198Z" fill="#FE9923"/>
<path d="M14.3189 14.1636C14.7643 14.562 15.3268 14.773 15.901 14.773C16.1705 14.773 16.4518 14.7261 16.7213 14.6323L19.4283 13.6363C19.4283 13.6363 19.4283 13.6363 19.44 13.6363L20.9986 13.0621V8.04639C20.8463 8.06986 20.6939 8.1167 20.5416 8.17533C19.7565 8.50342 19.2291 9.19486 19.1002 10.0152L18.8307 11.8081L17.4713 10.6128C16.8503 10.0503 15.9948 9.87447 15.1979 10.1206C14.3893 10.3785 13.7916 11.0112 13.5924 11.8198C13.3814 12.6753 13.6627 13.5777 14.3189 14.1636Z" fill="#FE8821"/>
<path d="M11.3776 17.1445L12.1744 19.3476C12.2682 19.582 12.4909 19.7226 12.7252 19.7226C12.7956 19.7226 12.8659 19.7109 12.9244 19.6875L18.9831 17.4844L19.5338 15.668L20.9986 15.9961L22.2877 16.289L28.3463 14.0859C28.651 13.9688 28.8033 13.6289 28.6979 13.3359L27.8893 11.1329C27.7369 10.6876 27.4088 10.3359 26.9869 10.1367C26.565 9.93755 26.0846 9.91408 25.6393 10.0781L20.9986 11.7656L20.6822 11.8828C20.6822 11.8828 19.4166 14.1797 19.3814 14.1797C19.3579 14.1797 18.854 13.8985 18.3618 13.6289C17.8698 13.3593 17.3775 13.0781 17.3775 13.0781L12.4323 14.8828C11.987 15.0468 11.6354 15.375 11.4362 15.7969C11.2369 16.2187 11.2135 16.6992 11.3776 17.1445Z" fill="#FF3E75"/>
<path d="M11.3775 17.1445L12.1744 19.3476C12.2682 19.582 12.4909 19.7226 12.7252 19.7226C12.7955 19.7226 12.8659 19.7109 12.9244 19.6875L18.983 17.4844L19.5338 15.668L20.9986 15.9961V11.7656L20.6822 11.8828C20.6822 11.8828 19.4166 14.1797 19.3814 14.1797C19.3579 14.1797 18.8541 13.8984 18.3619 13.6289C17.8698 13.3593 17.3775 13.0781 17.3775 13.0781L12.4323 14.8828C11.9869 15.0468 11.6354 15.375 11.4362 15.7969C11.2369 16.2187 11.2135 16.6992 11.3775 17.1445Z" fill="#FC1A40"/>
<path d="M22.7564 17.4141V28H19.2408V17.4141H22.7564Z" fill="#FCBF29"/>
<path d="M20.6822 11.8828L20.9987 12.75L22.2877 16.2891L20.9987 16.7579L19.5338 17.2852L18.9831 17.4844L17.3775 13.0782L20.6822 11.8828Z" fill="#FCBF29"/>
<path d="M19.2407 17.4141H20.9985V28H19.2407V17.4141Z" fill="#FE9923"/>
<path d="M17.3775 13.0782L18.983 17.4844L19.5338 17.2852L20.9986 16.7579V12.75L20.6822 11.8828L17.3775 13.0782Z" fill="#FE9923"/>
<rect x="40" y="16" width="4" height="4" rx="2" fill="#003459"/>
<path d="M60.762 12.2H54.91V22H56.842V18.22H60.65V16.372H56.842V14.048H60.762V12.2ZM63.8918 15H62.0858V22H63.8918V18.654C63.8918 17.982 64.1018 17.506 64.5358 17.212C64.9698 16.918 65.4738 16.806 66.0198 16.876V14.86C65.0678 14.86 64.2278 15.308 63.8918 16.204V15ZM73.88 19.242C73.922 18.976 73.95 18.738 73.95 18.5C73.95 17.45 73.614 16.582 72.942 15.868C72.284 15.154 71.43 14.804 70.408 14.804C69.33 14.804 68.434 15.154 67.748 15.868C67.062 16.568 66.712 17.45 66.712 18.5C66.712 19.564 67.062 20.446 67.762 21.146C68.462 21.846 69.386 22.196 70.548 22.196C71.892 22.196 72.914 21.692 73.6 20.698L72.144 19.858C71.794 20.32 71.262 20.558 70.576 20.558C69.498 20.558 68.84 20.124 68.602 19.242H73.88ZM68.574 17.842C68.784 16.946 69.442 16.428 70.408 16.428C71.234 16.428 71.934 16.89 72.144 17.842H68.574ZM82.0148 19.242C82.0568 18.976 82.0848 18.738 82.0848 18.5C82.0848 17.45 81.7488 16.582 81.0768 15.868C80.4188 15.154 79.5648 14.804 78.5428 14.804C77.4648 14.804 76.5688 15.154 75.8828 15.868C75.1968 16.568 74.8468 17.45 74.8468 18.5C74.8468 19.564 75.1968 20.446 75.8968 21.146C76.5968 21.846 77.5208 22.196 78.6828 22.196C80.0268 22.196 81.0488 21.692 81.7348 20.698L80.2788 19.858C79.9288 20.32 79.3968 20.558 78.7108 20.558C77.6328 20.558 76.9748 20.124 76.7368 19.242H82.0148ZM76.7088 17.842C76.9188 16.946 77.5768 16.428 78.5428 16.428C79.3688 16.428 80.0688 16.89 80.2788 17.842H76.7088ZM86.2015 12.2V14.048H88.8335V22H90.7655V14.048H93.4115V12.2H86.2015ZM99.0986 21.132C99.8126 20.418 100.177 19.536 100.177 18.5C100.177 17.464 99.8126 16.596 99.0986 15.882C98.3846 15.168 97.5026 14.804 96.4666 14.804C95.4306 14.804 94.5486 15.168 93.8346 15.882C93.1206 16.596 92.7706 17.464 92.7706 18.5C92.7706 19.536 93.1206 20.418 93.8346 21.132C94.5486 21.846 95.4306 22.196 96.4666 22.196C97.5026 22.196 98.3846 21.846 99.0986 21.132ZM95.1086 19.886C94.7586 19.522 94.5766 19.06 94.5766 18.5C94.5766 17.94 94.7586 17.478 95.1086 17.114C95.4726 16.75 95.9206 16.568 96.4666 16.568C97.0126 16.568 97.4606 16.75 97.8246 17.114C98.1886 17.478 98.3706 17.94 98.3706 18.5C98.3706 19.06 98.1886 19.522 97.8246 19.886C97.4606 20.25 97.0126 20.432 96.4666 20.432C95.9206 20.432 95.4726 20.25 95.1086 19.886ZM104.184 19.704L102.364 15H100.39L103.26 21.776C102.924 22.728 102.392 23.134 101.426 23.12V24.8C103.218 24.898 104.394 24.016 105.122 22L107.67 15H105.738L104.184 19.704ZM119.071 20.054C119.463 19.438 119.743 18.752 119.925 17.996L118.301 17.072C118.189 17.716 118.035 18.262 117.825 18.696L115.725 16.4C115.165 15.798 114.927 15.434 114.927 14.916C114.927 14.314 115.417 13.88 116.089 13.88C116.775 13.88 117.265 14.272 117.531 15.056L119.183 14.104C118.637 12.746 117.461 12.004 116.061 12.004C115.179 12.004 114.437 12.27 113.863 12.802C113.289 13.32 112.995 14.006 112.995 14.832C112.995 15.42 113.149 15.966 113.471 16.47C112.407 17.086 111.833 18.122 111.833 19.284C111.833 20.166 112.155 20.88 112.785 21.412C113.429 21.93 114.255 22.196 115.263 22.196C116.257 22.196 117.139 21.916 117.895 21.356L118.791 22.322L120.331 21.44L119.071 20.054ZM115.389 20.418C114.339 20.418 113.779 19.886 113.779 19.088C113.779 18.5 114.031 18.052 114.549 17.73C114.549 17.744 114.563 17.758 114.577 17.772L116.691 20.068C116.313 20.306 115.879 20.418 115.389 20.418ZM130.885 12.2H125.033V22H126.965V18.22H130.773V16.372H126.965V14.048H130.885V12.2ZM134.015 15H132.209V22H134.015V18.654C134.015 17.982 134.225 17.506 134.659 17.212C135.093 16.918 135.597 16.806 136.143 16.876V14.86C135.191 14.86 134.351 15.308 134.015 16.204V15ZM144.003 19.242C144.045 18.976 144.073 18.738 144.073 18.5C144.073 17.45 143.737 16.582 143.065 15.868C142.407 15.154 141.553 14.804 140.531 14.804C139.453 14.804 138.557 15.154 137.871 15.868C137.185 16.568 136.835 17.45 136.835 18.5C136.835 19.564 137.185 20.446 137.885 21.146C138.585 21.846 139.509 22.196 140.671 22.196C142.015 22.196 143.037 21.692 143.723 20.698L142.267 19.858C141.917 20.32 141.385 20.558 140.699 20.558C139.621 20.558 138.963 20.124 138.725 19.242H144.003ZM138.697 17.842C138.907 16.946 139.565 16.428 140.531 16.428C141.357 16.428 142.057 16.89 142.267 17.842H138.697ZM152.138 19.242C152.18 18.976 152.208 18.738 152.208 18.5C152.208 17.45 151.872 16.582 151.2 15.868C150.542 15.154 149.688 14.804 148.666 14.804C147.588 14.804 146.692 15.154 146.006 15.868C145.32 16.568 144.97 17.45 144.97 18.5C144.97 19.564 145.32 20.446 146.02 21.146C146.72 21.846 147.644 22.196 148.806 22.196C150.15 22.196 151.172 21.692 151.858 20.698L150.402 19.858C150.052 20.32 149.52 20.558 148.834 20.558C147.756 20.558 147.098 20.124 146.86 19.242H152.138ZM146.832 17.842C147.042 16.946 147.7 16.428 148.666 16.428C149.492 16.428 150.192 16.89 150.402 17.842H146.832ZM160.399 22.196C161.449 22.196 162.303 21.93 162.961 21.398C163.619 20.866 163.955 20.152 163.955 19.242C163.955 18.682 163.801 18.192 163.591 17.856C163.409 17.52 162.961 17.17 162.667 16.988C162.527 16.89 162.317 16.792 162.051 16.694C161.785 16.582 161.575 16.498 161.421 16.456L160.749 16.232C160.021 16.008 159.531 15.798 159.265 15.616C159.013 15.42 158.887 15.168 158.887 14.86C158.887 14.286 159.377 13.88 160.175 13.88C161.029 13.88 161.659 14.3 162.051 15.14L163.675 14.202C163.003 12.816 161.757 12.004 160.175 12.004C159.293 12.004 158.523 12.27 157.893 12.802C157.263 13.32 156.955 14.034 156.955 14.916C156.955 15.812 157.277 16.484 157.879 16.932C158.495 17.366 159.027 17.576 159.909 17.842C160.707 18.066 161.253 18.276 161.561 18.472C161.869 18.654 162.023 18.92 162.023 19.27C162.023 19.872 161.533 20.306 160.455 20.306C159.335 20.306 158.579 19.802 158.201 18.808L156.549 19.774C157.095 21.272 158.453 22.196 160.399 22.196ZM169.023 14.804C168.071 14.804 167.371 15.126 166.937 15.784V12.2H165.131V22H166.937V18.22C166.937 17.058 167.539 16.484 168.477 16.484C169.317 16.484 169.863 16.988 169.863 17.926V22H171.669V17.702C171.669 16.792 171.417 16.092 170.913 15.574C170.423 15.056 169.793 14.804 169.023 14.804ZM178.531 15.826C177.985 15.14 177.229 14.804 176.249 14.804C175.311 14.804 174.513 15.168 173.841 15.882C173.183 16.596 172.847 17.464 172.847 18.5C172.847 19.536 173.183 20.418 173.841 21.132C174.513 21.846 175.311 22.196 176.249 22.196C177.229 22.196 177.985 21.86 178.531 21.174V22H180.337V15H178.531V15.826ZM175.199 19.928C174.835 19.55 174.653 19.074 174.653 18.5C174.653 17.926 174.835 17.45 175.199 17.086C175.563 16.708 176.025 16.526 176.585 16.526C177.145 16.526 177.607 16.708 177.971 17.086C178.349 17.45 178.531 17.926 178.531 18.5C178.531 19.074 178.349 19.55 177.971 19.928C177.607 20.292 177.145 20.474 176.585 20.474C176.025 20.474 175.563 20.292 175.199 19.928ZM185.53 18.458L188.344 15H186.188L183.78 18.08V12.2H181.974V22H183.78V18.822L186.328 22H188.428L185.53 18.458ZM196.134 19.242C196.176 18.976 196.204 18.738 196.204 18.5C196.204 17.45 195.868 16.582 195.196 15.868C194.538 15.154 193.684 14.804 192.662 14.804C191.584 14.804 190.688 15.154 190.002 15.868C189.316 16.568 188.966 17.45 188.966 18.5C188.966 19.564 189.316 20.446 190.016 21.146C190.716 21.846 191.64 22.196 192.802 22.196C194.146 22.196 195.168 21.692 195.854 20.698L194.398 19.858C194.048 20.32 193.516 20.558 192.83 20.558C191.752 20.558 191.094 20.124 190.856 19.242H196.134ZM190.828 17.842C191.038 16.946 191.696 16.428 192.662 16.428C193.488 16.428 194.188 16.89 194.398 17.842H190.828ZM199.271 15H197.465V22H199.271V18.654C199.271 17.982 199.481 17.506 199.915 17.212C200.349 16.918 200.853 16.806 201.399 16.876V14.86C200.447 14.86 199.607 15.308 199.271 16.204V15Z" fill="#002A48"/>
</svg>
